HIERARCHY
ROOT hip
{
  OFFSET 0 0 0
  CHANNELS 6 Xposition Yposition Zposition Zrotation Yrotation Xrotation
  JOINT abdomen
  {
    OFFSET 0 20.6881 -0.73152
    CHANNELS 3 Zrotation Xrotation Yrotation
    JOINT chest
    {
      OFFSET 0 11.7043 -0.48768
      CHANNELS 3 Zrotation Xrotation Yrotation
      JOINT neck
      {
        OFFSET 0 22.1894 -2.19456
        CHANNELS 3 Zrotation Xrotation Yrotation
        JOINT head
        {
          OFFSET -0.24384 7.07133 1.2192
          CHANNELS 3 Zrotation Xrotation Yrotation
          JOINT leftEye
          {
            OFFSET 4.14528 8.04674 8.04672
            CHANNELS 3 Zrotation Xrotation Yrotation
            End Site
            {
              OFFSET 1 0 0
            }
          }
          JOINT rightEye
          {
            OFFSET -3.6576 8.04674 8.04672
            CHANNELS 3 Zrotation Xrotation Yrotation
            End Site
            {
              OFFSET 1 0 0
            }
          }
        }
      }
      JOINT rCollar
      {
        OFFSET -2.68224 19.2634 -4.8768
        CHANNELS 3 Zrotation Xrotation Yrotation
        JOINT rShldr
        {
          OFFSET -8.77824 -1.95073 1.46304
          CHANNELS 3 Zrotation Xrotation Yrotation
          JOINT rForeArm
          {
            OFFSET -28.1742 -1.7115 0.48768
            CHANNELS 3 Zrotation Xrotation Yrotation
            JOINT rHand
            {
              OFFSET -22.5879 0.773209 7.07136
              CHANNELS 3 Zrotation Xrotation Yrotation
              JOINT rThumb1
              {
                OFFSET -1.2192 -0.487915 3.41376
                CHANNELS 3 Zrotation Xrotation Yrotation
                JOINT rThumb2
                {
                  OFFSET -3.37035 -0.52449 3.41376
                  CHANNELS 3 Zrotation Xrotation Yrotation
                  End Site
                  {
                    OFFSET -1.78271 -1.18214 1.43049
                  }
                }
              }
              JOINT rIndex1
              {
                OFFSET -7.75947 0.938293 5.60832
                CHANNELS 3 Zrotation Xrotation Yrotation
                JOINT rIndex2
                {
                  OFFSET -2.54057 -0.884171 1.56538
                  CHANNELS 3 Zrotation Xrotation Yrotation
                  End Site
                  {
                    OFFSET -1.62519 -0.234802 1.16502
                  }
                }
              }
              JOINT rMid1
              {
                OFFSET -8.24714 1.18213 3.41376
                CHANNELS 3 Zrotation Xrotation Yrotation
                JOINT rMid2
                {
                  OFFSET -3.10165 -0.590103 1.0647
                  CHANNELS 3 Zrotation Xrotation Yrotation
                  End Site
                  {
                    OFFSET -2.48547 -0.328903 0.83742
                  }
                }
              }
              JOINT rRing1
              {
                OFFSET -8.82822 0.546677 1.51678
                CHANNELS 3 Zrotation Xrotation Yrotation
                JOINT rRing2
                {
                  OFFSET -2.60934 -0.819778 -0.0198488
                  CHANNELS 3 Zrotation Xrotation Yrotation
                  End Site
                  {
                    OFFSET -2.33842 -0.294052 0.168128
                  }
                }
              }
              JOINT rPinky1
              {
                OFFSET -8.27202 -0.0477905 -0.4584
                CHANNELS 3 Zrotation Xrotation Yrotation
                JOINT rPinky2
                {
                  OFFSET -1.82734 -0.647385 -0.700984
                  CHANNELS 3 Zrotation Xrotation Yrotation
                  End Site
                  {
                    OFFSET -1.69225 -0.51767 -0.607171
                  }
                }
              }
            }
          }
        }
      }
      JOINT lCollar
      {
        OFFSET 2.68224 19.2634 -4.8768
        CHANNELS 3 Zrotation Xrotation Yrotation
        JOINT lShldr
        {
          OFFSET 8.77824 -1.95073 1.46304
          CHANNELS 3 Zrotation Xrotation Yrotation
          JOINT lForeArm
          {
            OFFSET 28.1742 -1.7115 0.48768
            CHANNELS 3 Zrotation Xrotation Yrotation
            JOINT lHand
            {
              OFFSET 22.5879 0.773209 7.07136
              CHANNELS 3 Zrotation Xrotation Yrotation
              JOINT lThumb1
              {
                OFFSET 1.2192 -0.487915 3.41376
                CHANNELS 3 Zrotation Xrotation Yrotation
                JOINT lThumb2
                {
                  OFFSET 3.37035 -0.52449 3.41376
                  CHANNELS 3 Zrotation Xrotation Yrotation
                  End Site
                  {
                    OFFSET 1.78271 -1.18214 1.43049
                  }
                }
              }
              JOINT lIndex1
              {
                OFFSET 7.75947 0.938293 5.60832
                CHANNELS 3 Zrotation Xrotation Yrotation
                JOINT lIndex2
                {
                  OFFSET 2.54057 -0.884171 1.56538
                  CHANNELS 3 Zrotation Xrotation Yrotation
                  End Site
                  {
                    OFFSET 1.62519 -0.234802 1.16502
                  }
                }
              }
              JOINT lMid1
              {
                OFFSET 8.24714 1.18213 3.41376
                CHANNELS 3 Zrotation Xrotation Yrotation
                JOINT lMid2
                {
                  OFFSET 3.10165 -0.590103 1.0647
                  CHANNELS 3 Zrotation Xrotation Yrotation
                  End Site
                  {
                    OFFSET 2.48547 -0.328903 0.83742
                  }
                }
              }
              JOINT lRing1
              {
                OFFSET 8.82822 0.546677 1.51678
                CHANNELS 3 Zrotation Xrotation Yrotation
                JOINT lRing2
                {
                  OFFSET 2.60934 -0.819778 -0.0198488
                  CHANNELS 3 Zrotation Xrotation Yrotation
                  End Site
                  {
                    OFFSET 2.33842 -0.294052 0.168128
                  }
                }
              }
              JOINT lPinky1
              {
                OFFSET 8.27202 -0.0477905 -0.4584
                CHANNELS 3 Zrotation Xrotation Yrotation
                JOINT lPinky2
                {
                  OFFSET 1.82734 -0.647385 -0.700984
                  CHANNELS 3 Zrotation Xrotation Yrotation
                  End Site
                  {
                    OFFSET 1.69225 -0.51767 -0.607171
                  }
                }
              }
            }
          }
        }
      }
    }
  }
  JOINT rButtock
  {
    OFFSET -8.77824 4.35084 1.2192
    CHANNELS 3 Zrotation Xrotation Yrotation
    JOINT rThigh
    {
      OFFSET 0 -1.70687 -2.19456
      CHANNELS 3 Zrotation Xrotation Yrotation
      JOINT rShin
      {
        OFFSET 0 -36.8199 0.73152
        CHANNELS 3 Zrotation Xrotation Yrotation
        JOINT rFoot
        {
          OFFSET 0.73152 -45.1104 -5.12064
          CHANNELS 3 Zrotation Xrotation Yrotation
          End Site
          {
            OFFSET -1.1221 -3.69964 12.103
          }
        }
      }
    }
  }
  JOINT lButtock
  {
    OFFSET 8.77824 4.35084 1.2192
    CHANNELS 3 Zrotation Xrotation Yrotation
    JOINT lThigh
    {
      OFFSET 0 -1.70687 -2.19456
      CHANNELS 3 Zrotation Xrotation Yrotation
      JOINT lShin
      {
        OFFSET 0 -36.8199 0.73152
        CHANNELS 3 Zrotation Xrotation Yrotation
        JOINT lFoot
        {
          OFFSET -0.73152 -45.1104 -5.12064
          CHANNELS 3 Zrotation Xrotation Yrotation
          End Site
          {
            OFFSET 1.1221 -3.69964 12.103
          }
        }
      }
    }
  }
}
MOTION
Frames:	4
Frame Time:	0.03333
-6.7667 67.45949999999999 22.0576 -19.715554 -51.343594 15.920321 11.800663 11.662931 -102.93162 5.178083 -1.689286 117.526825 9.264209 17.483558 75.44913 -30.652173 -2.156622 -78.272345 0.002224 0.0 0.000187 0.002224 0.0 0.000187 -14.149301 43.061287 15.997385 49.484461 16.839383 37.344814 -69.279652 -23.950213 43.38351 12.771743 -35.959541 4.853038 -166.630784 -4.305248 89.770771 -102.937454 10.538375 44.15611 11.981527 -21.346821 -5.061265 56.064297 -48.73967 10.598369 -166.119613 -24.039834 145.076831 -2.305013 14.6823 3.031328 -145.098812 -1.522225 -178.650246 9.235043 -11.269819 -10.531081 -1.149705 -2.91466 -1.064066 2.18535 -0.997272 -0.294232 157.880743 -65.63782 -175.445122 -110.24722 41.313274 105.669887 -5.744465 5.151386 -56.555508 9.069689 20.474012 -0.236753 168.698951 -6.378277 -89.898872 134.913098 9.340355 -66.664289 140.682881 1.505896 -116.184168 -45.098151 -55.093116 -1.61333 167.375697 -28.00834 -145.269509 159.031835 7.64243 -141.213073 138.588125 43.49156 -163.724504 158.639339 0.349821 -179.329483 145.172783 12.067773 141.822866 -13.359095 32.696193 -4.960168 -0.003113 2.8e-05 0.0 -3.761894 2.478067 0.08811 21.594661 52.771757 90.606348 115.640817 40.6477 149.614149 0.0 -0.000454 0.000383 68.769487 -56.801044 153.713923 82.581161 -8.887755 -45.493068 -84.734301 20.471273 1.164294
-6.7574 67.2566 22.426099999999998 -19.762061 -51.543843 16.089308 7.00865 12.9689 80.290559 -5.348174 -2.873328 -65.142402 -0.725729 31.47941 -167.322986 6.606437 44.399393 163.71339 -0.003193 -0.0 0.001917 0.002386 -0.0 -0.002306 0.117601 -0.714023 -0.158531 63.245055 16.62586 -1.90968 179.259401 3.893522 59.813979 169.587659 -19.991187 143.330943 169.030436 -27.077531 86.617776 -46.773124 -10.883348 0.326231 29.115303 -49.291998 -4.256339 126.627734 -64.06938 65.008686 1.279331 -3.803503 -0.678989 -170.285431 -26.250109 144.303536 -0.000638 0.022553 0.007582 -156.176543 -15.218618 173.652073 -22.820039 -35.858765 -21.930691 -159.241213 55.718629 -149.617716 -4.226002 -44.097171 8.514668 104.587854 -13.908059 158.745052 82.261409 -18.709973 95.375187 -38.249861 -64.743105 -24.696053 78.030213 38.688623 -42.413202 146.722719 -31.232515 -83.112632 -60.462266 -70.52338 -15.710984 161.191843 -23.101629 -114.552238 125.643542 49.839292 -115.273109 163.852797 -7.055801 -143.300425 75.671695 -72.115234 92.829244 -14.722757 -0.032132 4.657216 87.576935 -50.208023 85.929279 147.160471 13.921744 143.146592 0.004444 -0.000268 0.002222 -3.245015 1.458287 -84.118167 -55.338103 4.396643 -3.291747 -105.153423 -61.406 -19.805041 -179.986808 75.74991 -0.009026 -148.289578 0.095178 0.644539 -14.402284 84.677945 -73.227798 53.312072 77.398464 28.540652
-6.8336 67.0411 22.9666 -19.621086 -51.777089 16.538463 7.791214 10.765101 143.775583 -3.057211 2.425564 -128.900377 10.082441 22.048035 102.658326 -33.655757 13.766575 -100.063594 0.004093 0.0 0.00199 0.003569 -0.0 -0.002332 -154.821782 -73.937852 -179.840463 -2.257942 18.01235 -41.103523 26.534872 -75.366738 -97.00131 170.251237 -18.916968 143.453246 102.15912 -51.174111 46.988731 -162.837439 -23.283471 123.7222 -50.386134 40.826646 40.024542 67.244677 -59.011549 23.431217 -36.03382 51.72406 29.831102 -153.885914 19.99495 138.638157 -145.119283 0.186092 -179.185326 -154.987973 -4.904284 -178.588661 -0.344871 -0.890002 -0.319453 -2.807729 -13.056658 -4.66562 40.03829 -86.056219 61.569304 -30.911694 3.25947 49.398492 -130.566198 -62.370805 -38.512119 -178.863947 1.247577 -144.09745 5.433836 5.26495 -1.077279 25.061647 20.0394 -24.742647 46.208973 39.653579 -36.317157 12.355876 25.072511 -5.48686 169.0887 -33.247349 -145.376047 7.574643 26.102115 -6.418231 145.061491 -3.309167 178.085985 144.672514 -51.024369 167.238453 -7.223376 22.2738 -6.418144 160.051261 55.503707 149.912589 -179.99363 75.748667 -0.006573 163.547585 76.082574 -83.715038 -58.144987 3.828224 -140.791651 97.794448 30.246992 160.006836 -0.001383 -0.000635 0.0 70.61036 -57.400331 -180.0 88.220355 -21.308108 172.003906 8.730522 25.012623 97.491339
-6.9661 66.94600000000001 23.8073 -19.761545 -52.12142 17.299453 9.162678 15.22624 -2.054461 -0.092594 -8.342182 16.642358 8.900542 26.415919 128.360506 -30.402529 28.519876 -121.772118 -0.00474 -0.0 0.000347 0.000964 -0.0 -0.000154 -157.884779 -23.047038 165.639074 -44.323023 -22.021881 -10.241552 -70.973335 12.698678 -97.404969 68.742837 -70.506884 53.804825 -0.44073 0.435659 0.069161 -154.856926 -65.905682 118.681383 -4.70668 7.224169 2.854028 -38.06717 42.831175 27.606954 -0.569603 1.648558 0.322537 -154.076743 20.054043 138.725152 -71.542556 -72.140062 -88.496505 -147.49636 -45.241639 -176.209927 12.251898 41.424889 10.282051 -147.661276 10.292538 -143.056718 142.973668 39.431315 -147.389298 87.915366 41.363649 -48.641333 -8.905438 -46.043153 88.207203 -172.818231 -16.841143 -143.461774 -1.590061 -1.575953 0.222177 136.693538 -38.68093 -119.305615 -60.459927 -70.524426 -15.707844 -171.629751 -53.044162 -101.423338 6.646823 17.108735 -4.32619 -86.260522 -78.338048 -57.460269 145.119872 0.185652 179.186217 150.349503 -35.132489 173.020898 1.149442 -2.914409 1.065747 127.27002 -31.007409 125.7408 0.0 0.001758 -0.001407 -6.465946 1.228067 79.291423 53.93025 -4.924587 8.659119 -75.110271 -24.177831 -143.5674 179.997917 75.750252 -0.0 -149.210955 -1.874923 88.602266 88.364637 4.507186 175.380577 9.853685 29.856653 94.428149
